<?xml version="1.0" encoding="utf-8"?>
<!-- Uploaded to: SVG Repo, www.svgrepo.com, Generator: SVG Repo Mixer Tools -->
<svg width="800px" height="800px" viewBox="0 0 1024 1024" class="icon"  version="1.1" xmlns="http://www.w3.org/2000/svg"><path d="M876.619 485.178C862.434 225.189 704.656 80.001 513 80.001c-191.651 0-348.586 145.311-363.496 405.176H67.306V930.87h891.388V485.178h-82.075z m-181.29 384.915H492.741V587.051c0-56.265 45.351-101.873 101.294-101.873s101.294 45.609 101.294 101.873v283.042z m222.847 20.259H735.847V584.733c0-77.36-63.493-140.073-141.812-140.073-78.321 0-141.812 62.713-141.812 140.073v305.618h-344.4V525.693h40.518c1.743 0.581 69.462 0.635 162.988 0.48-71.34-0.228-121.065-0.573-122.473-1.041 0.505-240.247 145.125-404.613 324.144-404.613 179.017 0 322.687 142.596 324.139 405.174h81.037v364.659z" fill="#D61E1E" /></svg>